<svg xmlns="http://www.w3.org/2000/svg" version="1.1" xmlns:xlink="http://www.w3.org/1999/xlink" xmlns:svgjs="http://svgjs.dev/svgjs" width="1500" height="301" viewBox="0 0 1500 301"><g transform="matrix(1,0,0,1,-0.012452911436753311,-1.1526936303483524)"><svg viewBox="0 0 333 67" data-background-color="#333b6a" preserveAspectRatio="xMidYMid meet" height="301" width="1500" xmlns="http://www.w3.org/2000/svg" xmlns:xlink="http://www.w3.org/1999/xlink"><g id="tight-bounds" transform="matrix(1,0,0,1,0.0027645463389660563,0.318359375)"><svg viewBox="0 0 332.99447090732207 66.36328125" height="66.36328125" width="332.99447090732207"><g><svg viewBox="0 0 332.99447090732207 66.36328125" height="66.36328125" width="332.99447090732207"><g><svg viewBox="0 0 332.99447090732207 66.36328125" height="66.36328125" width="332.99447090732207"><g id="textblocktransform"><svg viewBox="0 0 332.99447090732207 66.36328125" height="66.36328125" width="332.99447090732207" id="textblock"><g><svg viewBox="0 0 332.99447090732207 66.36328125" height="66.36328125" width="332.99447090732207"><g><svg><g></g><g></g></svg></g><g><svg><g><svg></svg></g><g></g></svg></g><g id="text-0"><svg viewBox="0 0 332.99447090732207 66.36328125" height="66.36328125" width="332.99447090732207"><g transform="matrix(1,0,0,1,0,10.232421875)"><svg width="136.03515625" viewBox="1.9499999999999997 -31.74 136.03 41.019999999999996" height="41.015625" data-palette-color="#b7feae"><path d="M1.95-10.16L1.95-10.16Q1.95-4.25 6.3-1.32L6.3-1.32Q8.98 0.49 12.4 0.49L12.4 0.49Q17.48 0.49 20.07-3.08L20.07-3.08Q20.65-3.91 21-4.74L21-4.74 19.73-5.18Q17.92-1.32 13.77-0.93L13.77-0.93Q13.38-0.88 12.99-0.88L12.99-0.88Q9.52-0.88 7.57-4.35L7.57-4.35Q6.1-6.98 6.1-10.6L6.1-10.6Q6.1-16.99 9.47-19.14L9.47-19.14Q10.89-20.02 12.6-20.02L12.6-20.02Q15.23-20.02 15.77-17.97L15.77-17.97Q15.87-17.58 16.02-16.75L16.02-16.75Q16.31-14.79 17.09-14.31L17.09-14.31Q17.58-14.06 18.16-14.01L18.16-14.01Q19.82-13.92 20.26-15.38L20.26-15.38Q20.36-15.72 20.36-16.02L20.36-16.02Q20.36-18.51 17.19-20.12L17.19-20.12Q14.94-21.24 12.3-21.24L12.3-21.24Q5.76-21.24 3.17-15.92L3.17-15.92Q1.95-13.38 1.95-10.16ZM27.34-10.4L27.34-10.4Q27.34-17.97 31.49-19.63L31.49-19.63Q32.57-20.02 33.74-20.02L33.74-20.02Q39.16-20.02 40.04-13.18L40.04-13.18Q40.18-12.01 40.18-10.6L40.18-10.6Q40.18-2.39 35.69-0.98L35.69-0.98Q34.81-0.73 33.88-0.73L33.88-0.73Q28.95-0.73 27.68-6.59L27.68-6.59Q27.34-8.3 27.34-10.4ZM33.88-21.24L33.88-21.24Q29.2-21.24 26.07-18.02L26.07-18.02Q23.19-15.04 23.19-10.6L23.19-10.6Q23.19-4.44 27.68-1.37L27.68-1.37Q30.42 0.49 33.74 0.49L33.74 0.49Q38.43 0.49 41.5-2.83L41.5-2.83Q44.33-5.86 44.33-10.4L44.33-10.4Q44.33-16.55 39.79-19.53L39.79-19.53Q37.11-21.24 33.88-21.24ZM64.5-5.18L64.89 0 71.87 0Q71.87-1.07 71.14-1.17L71.14-1.17Q70.94-1.22 70.65-1.22L70.65-1.22 68.21-1.22 68.11-31.74 59.81-31.74 59.81-30.52 64.45-30.52 64.45-18.6Q62.06-21.24 58-21.24L58-21.24Q52.63-21.24 49.9-16.46L49.9-16.46Q48.24-13.53 48.24-9.86L48.24-9.86Q48.24-3.81 52.05-1.03L52.05-1.03Q54.19 0.49 56.78 0.49L56.78 0.49Q62.1 0.39 64.5-5.18L64.5-5.18ZM52.39-10.45L52.39-10.45Q52.39-17.33 56.1-19.38L56.1-19.38Q57.27-20.02 58.69-20.02L58.69-20.02Q62.25-20.02 63.76-16.21L63.76-16.21Q64.59-14.16 64.59-11.38L64.59-11.38Q64.59-5.52 61.66-2.88L61.66-2.88Q60.1-1.46 58.1-1.46L58.1-1.46Q54.1-1.46 52.88-6.35L52.88-6.35Q52.39-8.15 52.39-10.45ZM84.51-1.22L84.51-1.22 82.07-1.22 82.07-20.75 74.5-20.75 74.5-19.53 78.41-19.53 78.41-4.15Q78.41-1.9 76.9-1.42L76.9-1.42Q76.16-1.22 74.5-1.22L74.5-1.22 74.5 0 85.73 0Q85.73-1.07 85-1.17L85-1.17Q84.76-1.22 84.51-1.22ZM82.66-27.88L82.66-27.88Q82.66-29.59 81.14-30.32L81.14-30.32Q80.56-30.57 80.02-30.57L80.02-30.57Q78.31-30.57 77.58-29L77.58-29Q77.34-28.47 77.34-27.88L77.34-27.88Q77.34-26.07 78.95-25.39L78.95-25.39Q79.48-25.2 80.02-25.2L80.02-25.2Q81.73-25.2 82.41-26.76L82.41-26.76Q82.66-27.29 82.66-27.88ZM98.18-1.22L98.18-1.22 95.99-1.22 95.99-11.77Q96.13-16.31 99.21-18.31L99.21-18.31Q100.53-19.14 101.89-19.14L101.89-19.14Q104.87-19.14 105.95-16.36L105.95-16.36Q106.39-15.23 106.39-13.82L106.39-13.82 106.39-4.15Q106.39-1.9 105.12-1.46L105.12-1.46Q104.38-1.22 102.72-1.22L102.72-1.22 102.72 0 113.71 0Q113.71-1.07 112.98-1.17L112.98-1.17Q112.78-1.22 112.49-1.22L112.49-1.22 110.05-1.22 110.05-13.33Q110.05-18.21 106.68-20.31L106.68-20.31Q105.12-21.24 103.31-21.24L103.31-21.24Q99.7-21.24 97.35-18.36L97.35-18.36Q96.47-17.24 95.94-15.87L95.94-15.87 95.74-20.75 88.66-20.75 88.66-19.53 92.32-19.53 92.32-4.15Q92.32-1.9 91.05-1.46L91.05-1.46Q90.32-1.22 88.66-1.22L88.66-1.22 88.66 0 99.4 0Q99.4-1.07 98.67-1.17L98.67-1.17Q98.48-1.22 98.18-1.22ZM121.28-13.53L121.28-13.53Q121.37-19.97 126.16-20.02L126.16-20.02Q130.94-19.92 130.99-13.53L130.99-13.53Q130.9-6.88 126.16-6.84L126.16-6.84Q121.33-6.93 121.28-13.53ZM126.21-21.24L126.21-21.24Q121.81-21.24 119.23-18.41L119.23-18.41Q117.37-16.31 117.37-13.48L117.37-13.48Q117.37-9.77 120.98-7.32L120.98-7.32Q121.33-7.08 121.67-6.88L121.67-6.88Q118.54-6.88 117.76-4.2L117.76-4.2Q117.61-3.56 117.61-2.93L117.61-2.93Q117.66-0.34 119.71 0.93L119.71 0.93Q118.1 2.64 118.1 4.39L118.1 4.39Q118.1 7.08 121.28 8.4L121.28 8.4Q123.28 9.28 126.21 9.28L126.21 9.28Q133.63 9.28 136.02 5.66L136.02 5.66Q136.8 4.44 136.8 3.08L136.8 3.08Q136.8-1.12 131.97-1.76L131.97-1.76Q131.34-1.86 130.65-1.86L130.65-1.86 121.76-2.05Q119.52-2.2 119.47-4L119.47-4Q119.47-5.27 121.08-5.62L121.08-5.62Q121.42-5.66 121.81-5.66L121.81-5.66 126.11-5.62Q130.46-5.62 133.04-8.54L133.04-8.54Q134.9-10.64 134.9-13.53L134.9-13.53Q134.85-17.19 132.07-19.38L132.07-19.38Q132.51-20.95 133.73-21.24L133.73-21.24Q133.92-21.29 134.12-21.29L134.12-21.29Q134.8-21.29 135.58-20.56L135.58-20.56Q136.12-20.07 136.56-20.07L136.56-20.07Q137.78-20.36 137.98-21.63L137.98-21.63Q137.98-23.14 136.56-23.68L136.56-23.68Q136.02-23.88 135.49-23.88L135.49-23.88Q133.19-23.88 131.77-21.83L131.77-21.83Q131.24-21.04 130.94-20.12L130.94-20.12Q128.75-21.24 126.21-21.24ZM126.21 8.01L126.21 8.01Q121.37 8.01 120.1 5.47L120.1 5.47Q119.76 4.79 119.76 4.1L119.76 4.1Q119.81 2.78 120.93 1.46L120.93 1.46Q121.91 1.66 122.55 1.66L122.55 1.66 130.07 1.76Q133.73 1.81 134.31 3.42L134.31 3.42Q134.46 3.81 134.46 4.39L134.46 4.39Q134.46 6.54 130.46 7.52L130.46 7.52Q128.5 8.01 126.21 8.01Z" opacity="1" transform="matrix(1,0,0,1,0,0)" fill="#b7feae" class="undefined-tk-0"></path></svg></g><g><svg xmlns="http://www.w3.org/2000/svg" xmlns:xlink="http://www.w3.org/1999/xlink" version="1.1" x="151.703125" y="0" viewBox="5.1937349628787235 12.673552085112462 89.27453007424255 79.93244791488753" enable-background="new 0 0 100 100" xml:space="preserve" height="66.36328125" width="74.11947090732205" class="icon-dxe-0" data-fill-palette-color="accent" id="dxe-0"><g fill="#cafbff" data-fill-palette-color="accent"><path d="M62.912 48.268C63.416 48.268 63.83 48.664 63.858 49.162L62.874 63.65H36.665L35.68 49.161A0.95 0.95 0 0 1 36.626 48.267zM62.912 45.996H36.626A3.22 3.22 0 0 0 33.407 49.215L34.543 65.92H64.996L66.132 49.215A3.22 3.22 0 0 0 62.912 45.996" fill="#cafbff" data-fill-palette-color="accent"></path><path fill-rule="evenodd" clip-rule="evenodd" d="M64.012 70.239H35.508A0.966 0.966 0 0 1 34.542 69.273V67.186H64.977V69.273A0.965 0.965 0 0 1 64.012 70.239" fill="#cafbff" data-fill-palette-color="accent"></path><circle cx="49.76" cy="55.959" r="1.9" fill="#cafbff" data-fill-palette-color="accent"></circle><path d="M30.895 40.874L29.863 31.119A3.433 3.433 0 0 0 26.46 28.111L9.557 28.093A3.433 3.433 0 0 0 6.134 31.215C6.132 30.045 5.496 40.645 5.195 50.365 5.191 50.501 5.196 50.635 5.217 50.77 5.74 54.22 7.084 58.654 14.115 60.912 18.319 62.262 19.214 58.93 17.6 56.944 16.017 54.996 14.602 53.452 13.649 52.058 12.759 50.756 12.93 47.049 12.96 46.597 14.193 45.877 16.319 45 17.266 44.619 21.268 43.01 25.891 41.771 30.895 40.874" fill="#cafbff" data-fill-palette-color="accent"></path><path d="M94.301 56.392A11.5 11.5 0 0 1 91.858 59.342C91.479 62.629 87.298 66.146 80.504 68.842 72.332 72.085 61.405 73.871 49.737 73.871S27.143 72.085 18.971 68.842C12.053 66.097 7.841 62.501 7.598 59.162A11.5 11.5 0 0 1 5.246 56.19C4.973 56.915 6.692 82.85 6.692 82.85H12.031L11.888 68.505C16.571 71.393 23.291 73.708 31.246 75.134L32.472 92.606H37.743L39.094 76.205C42.508 76.534 46.069 76.712 49.738 76.712 53.276 76.712 56.714 76.545 60.016 76.238L61.155 92.605H66.426L67.862 75.199C75.981 73.779 82.837 71.435 87.593 68.501L87.467 82.605H92.806S94.53 57.051 94.301 56.392" fill="#cafbff" data-fill-palette-color="accent"></path><path d="M68.768 40.874L69.8 31.119A3.433 3.433 0 0 1 73.203 28.111L90.105 28.093A3.433 3.433 0 0 1 93.528 31.215C93.53 30.045 94.166 40.645 94.467 50.365 94.471 50.501 94.466 50.635 94.445 50.77 93.922 54.22 92.578 58.654 85.547 60.912 81.343 62.262 80.448 58.93 82.062 56.944 83.645 54.996 85.06 53.452 86.013 52.058 86.903 50.756 86.732 47.049 86.702 46.597 85.469 45.877 83.343 45 82.396 44.619 78.395 43.01 73.772 41.771 68.768 40.874" fill="#cafbff" data-fill-palette-color="accent"></path><path d="M14.952 49.8A41 41 0 0 1 18.671 48.118C26.936 44.838 37.969 43.032 49.737 43.032S72.537 44.838 80.803 48.118A41 41 0 0 1 84.71 49.896V47.625C76.461 43.585 63.86 41.002 49.737 41.002 35.721 41.002 23.203 43.546 14.952 47.533z" fill="#cafbff" data-fill-palette-color="accent"></path><path d="M15.51 13.169A6.1 6.1 0 0 1 17.322 12.704C20.719 12.367 23.746 14.866 24.086 18.288S21.949 24.759 18.552 25.096C16.396 25.31 14.392 24.377 13.127 22.793 11.41 24.235 9.231 28.947 5.789 22.588 10.186 26.111 10.032 15.075 15.51 13.169" fill="#cafbff" data-fill-palette-color="accent"></path><path d="M42.553 29.467L31.243 23.924V22.114L42.553 15.837V18.874L34.762 22.886 42.553 26.442z" fill="#cafbff" data-fill-palette-color="accent"></path><path d="M54.476 13.534L48.269 32.035H45.114L51.321 13.534z" fill="#cafbff" data-fill-palette-color="accent"></path><path d="M57.458 26.442L65.249 22.886 57.458 18.874V15.837L68.768 22.114V23.924L57.458 29.467z" fill="#cafbff" data-fill-palette-color="accent"></path><path d="M84.153 13.169A6.1 6.1 0 0 0 82.341 12.704C78.944 12.367 75.917 14.866 75.577 18.288S77.714 24.759 81.111 25.096C83.267 25.31 85.271 24.377 86.536 22.793 88.253 24.235 90.432 28.947 93.874 22.588 89.477 26.111 89.631 15.075 84.153 13.169" fill="#cafbff" data-fill-palette-color="accent"></path></g></svg></g><g transform="matrix(1,0,0,1,241.49056465732207,9.5)"><svg width="91.50390625" viewBox="1.95 -29.3 91.5 29.79" height="29.78515625" data-palette-color="#b7feae"><path d="M10.06-28.03L15.38-28.03Q19.73-28.03 21-24.12L21-24.12Q21.39-22.85 21.39-21.39L21.39-21.39Q21.39-15.04 15.72-14.4L15.72-14.4Q15.14-14.36 14.55-14.36L14.55-14.36 10.06-14.36 10.06-28.03ZM1.95 0L14.94 0Q14.94-1.07 14.16-1.22L14.16-1.22Q13.92-1.27 13.67-1.27L13.67-1.27 10.06-1.27 10.06-12.94 14.36-12.94Q22.36-12.94 24.95-17.48L24.95-17.48Q25.98-19.19 25.98-21.44L25.98-21.44Q25.98-26.27 21.78-28.22L21.78-28.22Q19.53-29.3 16.41-29.3L16.41-29.3 1.95-29.3 1.95-28.03 5.86-28.03 5.86-1.27 1.95-1.27 1.95 0ZM46.53 0.49L46.53 0.49Q50.29 0.49 50.68-4.05L50.68-4.05Q50.73-4.35 50.73-4.59L50.73-4.59 49.46-4.64Q49.12-1.07 47.56-1.03L47.56-1.03Q46.29-1.12 46.24-3.56L46.24-3.56 46.24-13.87Q46.24-20.85 39.26-21.24L39.26-21.24Q38.82-21.24 38.38-21.24L38.38-21.24Q32.91-21.24 31.05-18.7L31.05-18.7Q30.47-17.87 30.47-17.04L30.47-17.04Q30.47-15.53 31.88-15.28L31.88-15.28Q32.13-15.23 32.37-15.23L32.37-15.23Q33.49-15.23 34.03-16.65L34.03-16.65Q34.71-18.46 34.96-18.8L34.96-18.8Q35.89-20.02 37.84-20.02L37.84-20.02Q42.43-19.73 42.58-14.99L42.58-14.99 42.58-11.91Q31.1-11.91 29.44-7.13L29.44-7.13Q29.15-6.2 29.15-5.13L29.15-5.13Q29.15-1.42 32.42-0.05L32.42-0.05Q33.74 0.49 35.2 0.49L35.2 0.49Q38.77 0.49 41.21-1.95L41.21-1.95Q42.09-2.88 42.53-3.91L42.53-3.91Q43.11 0.44 46.53 0.49ZM36.81-1.46L36.81-1.46Q33.84-1.46 33.15-4.44L33.15-4.44Q33.01-5.13 33.01-5.96L33.01-5.96Q33.01-9.23 36.77-10.11L36.77-10.11Q38.77-10.55 42.58-10.6L42.58-10.6 42.58-6.69Q41.84-3.32 39.01-1.95L39.01-1.95Q37.89-1.46 36.81-1.46ZM63.37-1.22L63.37-1.22 59.86-1.22 59.86-10.94Q59.86-15.38 62.59-18.07L62.59-18.07Q63.67-19.09 64.4-19.14L64.4-19.14Q65.23-19.14 65.91-17.92L65.91-17.92Q66.69-16.55 67.38-16.36L67.38-16.36Q67.67-16.26 67.96-16.26L67.96-16.26Q69.43-16.26 69.82-17.68L69.82-17.68Q69.92-17.97 69.92-18.26L69.92-18.26Q69.92-20.46 67.67-20.95L67.67-20.95Q67.18-21.04 66.74-21.04L66.74-21.04Q63.81-21.04 61.52-18.55L61.52-18.55Q60.44-17.38 59.81-15.92L59.81-15.92 59.61-20.75 52.53-20.75 52.53-19.53 56.2-19.53 56.2-4.15Q56.2-1.9 54.93-1.46L54.93-1.46Q54.19-1.22 52.53-1.22L52.53-1.22 52.53 0 64.59 0Q64.59-1.07 63.86-1.17L63.86-1.17Q63.67-1.22 63.37-1.22ZM89.25 0.49L89.25 0.49Q93.01 0.49 93.4-4.05L93.4-4.05Q93.45-4.35 93.45-4.59L93.45-4.59 92.18-4.64Q91.84-1.07 90.28-1.03L90.28-1.03Q89.01-1.12 88.96-3.56L88.96-3.56 88.96-13.87Q88.96-20.85 81.97-21.24L81.97-21.24Q81.54-21.24 81.1-21.24L81.1-21.24Q75.63-21.24 73.77-18.7L73.77-18.7Q73.19-17.87 73.19-17.04L73.19-17.04Q73.19-15.53 74.6-15.28L74.6-15.28Q74.85-15.23 75.09-15.23L75.09-15.23Q76.21-15.23 76.75-16.65L76.75-16.65Q77.43-18.46 77.68-18.8L77.68-18.8Q78.61-20.02 80.56-20.02L80.56-20.02Q85.15-19.73 85.3-14.99L85.3-14.99 85.3-11.91Q73.82-11.91 72.16-7.13L72.16-7.13Q71.87-6.2 71.87-5.13L71.87-5.13Q71.87-1.42 75.14-0.05L75.14-0.05Q76.46 0.49 77.92 0.49L77.92 0.49Q81.49 0.49 83.93-1.95L83.93-1.95Q84.81-2.88 85.25-3.91L85.25-3.91Q85.83 0.44 89.25 0.49ZM79.53-1.46L79.53-1.46Q76.56-1.46 75.87-4.44L75.87-4.44Q75.72-5.13 75.72-5.96L75.72-5.96Q75.72-9.23 79.48-10.11L79.48-10.11Q81.49-10.55 85.3-10.6L85.3-10.6 85.3-6.69Q84.56-3.32 81.73-1.95L81.73-1.95Q80.61-1.46 79.53-1.46Z" opacity="1" transform="matrix(1,0,0,1,0,0)" fill="#b7feae" class="undefined-tk-1"></path></svg></g></svg></g></svg></g></svg></g></svg></g></svg></g><defs></defs></svg><rect width="332.99447090732207" height="66.36328125" fill="none" stroke="none" visibility="hidden"></rect></g></svg></g></svg>